<mxfile host="app.diagrams.net" modified="2020-12-10T09:27:20.143Z" agent="5.0 (Macintosh; Intel Mac OS X 10_15_7) AppleWebKit/605.1.15 (KHTML, like Gecko) Version/13.1.3 Safari/605.1.15" etag="iNF6MNWLaBJbwCvHes_U" version="14.0.0" type="github">
  <diagram name="Page-1" id="c7558073-3199-34d8-9f00-42111426c3f3">
    <mxGraphModel dx="946" dy="662" grid="1" gridSize="10" guides="1" tooltips="1" connect="1" arrows="1" fold="1" page="1" pageScale="1" pageWidth="826" pageHeight="1169" background="#ffffff" math="0" shadow="0">
      <root>
        <mxCell id="0" />
        <mxCell id="1" parent="0" />
        <mxCell id="2" value="&lt;p style=&quot;margin: 4px 0px 0px; text-align: center;&quot;&gt;&lt;br&gt;&lt;/p&gt;&lt;p style=&quot;margin: 4px 0px 0px; text-align: center;&quot;&gt;Middleware&lt;/p&gt;" style="verticalAlign=middle;align=center;overflow=fill;fontSize=12;fontFamily=Helvetica;html=1;rounded=1;fontStyle=1;strokeWidth=4;fillColor=#f8cecc;strokeColor=#b85450;shadow=1;glass=1;" parent="1" vertex="1">
          <mxGeometry x="186" y="281" width="110" height="90" as="geometry" />
        </mxCell>
        <mxCell id="3" value="Consumer" style="whiteSpace=wrap;align=center;verticalAlign=middle;fontStyle=1;strokeWidth=4;fillColor=#fff2cc;rounded=1;strokeColor=#d6b656;glass=1;shadow=1;" parent="1" vertex="1">
          <mxGeometry x="450" y="150" width="90" height="60" as="geometry" />
        </mxCell>
        <mxCell id="4" value="Producer" style="whiteSpace=wrap;align=center;verticalAlign=middle;fontStyle=1;strokeWidth=4;fillColor=#fff2cc;rounded=1;strokeColor=#d6b656;glass=1;shadow=1;" parent="1" vertex="1">
          <mxGeometry x="50" y="150" width="90" height="60" as="geometry" />
        </mxCell>
        <mxCell id="6" value="&lt;p style=&quot;margin: 4px 0px 0px; text-align: center;&quot;&gt;&lt;br&gt;&lt;/p&gt;&lt;p style=&quot;margin: 4px 0px 0px; text-align: center;&quot;&gt;Data storage&lt;/p&gt;" style="verticalAlign=middle;align=center;overflow=fill;fontSize=12;fontFamily=Helvetica;html=1;rounded=1;fontStyle=1;strokeWidth=4;fillColor=#f8cecc;strokeColor=#b85450;perimeterSpacing=0;shadow=1;glass=1;sketch=0;" parent="1" vertex="1">
          <mxGeometry x="630" y="281" width="110" height="90" as="geometry" />
        </mxCell>
        <mxCell id="36" value="" style="edgeStyle=none;noEdgeStyle=1;strokeColor=#b85450;strokeWidth=2;exitX=1.036;exitY=0.433;exitDx=0;exitDy=0;exitPerimeter=0;entryX=0;entryY=0.75;entryDx=0;entryDy=0;fillColor=#f8cecc;" parent="1" source="2" target="3" edge="1">
          <mxGeometry width="100" height="100" relative="1" as="geometry">
            <mxPoint x="20" y="250" as="sourcePoint" />
            <mxPoint x="530" y="290" as="targetPoint" />
          </mxGeometry>
        </mxCell>
        <mxCell id="37" value="" style="edgeStyle=none;noEdgeStyle=1;strokeColor=#d6b656;strokeWidth=2;fillColor=#fff2cc;entryX=-0.009;entryY=0.344;entryDx=0;entryDy=0;entryPerimeter=0;" parent="1" source="4" target="2" edge="1">
          <mxGeometry width="100" height="100" relative="1" as="geometry">
            <mxPoint x="280" y="190" as="sourcePoint" />
            <mxPoint x="180" y="310" as="targetPoint" />
          </mxGeometry>
        </mxCell>
        <mxCell id="jXIyl_CYdx8W3uLJqL3S-107" value="" style="endArrow=classic;html=1;fillColor=#fff2cc;strokeColor=#d6b656;strokeWidth=2;entryX=0;entryY=0.5;entryDx=0;entryDy=0;exitX=1;exitY=0.5;exitDx=0;exitDy=0;" edge="1" parent="1" source="3" target="6">
          <mxGeometry width="50" height="50" relative="1" as="geometry">
            <mxPoint x="590" y="390" as="sourcePoint" />
            <mxPoint x="440" y="360" as="targetPoint" />
            <Array as="points" />
          </mxGeometry>
        </mxCell>
      </root>
    </mxGraphModel>
  </diagram>
</mxfile>
